<mxfile host="app.diagrams.net" modified="2024-07-24T14:58:30.827Z" agent="Mozilla/5.0 (X11; Linux x86_64) AppleWebKit/537.36 (KHTML, like Gecko) Chrome/126.0.0.0 Safari/537.36" etag="NcyfBa5Gg4xW6GCAuOe9" version="24.7.3" type="device">
  <diagram name="Page-1" id="YrPcsXJOFC73fCjbr_MK">
    <mxGraphModel dx="1410" dy="754" grid="1" gridSize="10" guides="1" tooltips="1" connect="1" arrows="1" fold="1" page="1" pageScale="1" pageWidth="1100" pageHeight="850" math="0" shadow="0">
      <root>
        <mxCell id="0" />
        <mxCell id="1" parent="0" />
        <mxCell id="qcJPQ-r1ZDYLDCzbHex4-2" value="" style="rounded=1;whiteSpace=wrap;html=1;verticalAlign=bottom;fontSize=20;" vertex="1" parent="1">
          <mxGeometry x="330" y="160" width="470" height="340" as="geometry" />
        </mxCell>
        <mxCell id="qcJPQ-r1ZDYLDCzbHex4-46" style="edgeStyle=orthogonalEdgeStyle;rounded=0;orthogonalLoop=1;jettySize=auto;html=1;" edge="1" parent="1" source="qcJPQ-r1ZDYLDCzbHex4-3" target="qcJPQ-r1ZDYLDCzbHex4-41">
          <mxGeometry relative="1" as="geometry" />
        </mxCell>
        <mxCell id="qcJPQ-r1ZDYLDCzbHex4-3" value="Attacks Page" style="rounded=1;whiteSpace=wrap;html=1;" vertex="1" parent="1">
          <mxGeometry x="505" y="180" width="120" height="60" as="geometry" />
        </mxCell>
        <mxCell id="qcJPQ-r1ZDYLDCzbHex4-21" style="edgeStyle=orthogonalEdgeStyle;rounded=0;orthogonalLoop=1;jettySize=auto;html=1;entryX=0.5;entryY=0;entryDx=0;entryDy=0;" edge="1" parent="1" source="qcJPQ-r1ZDYLDCzbHex4-4" target="qcJPQ-r1ZDYLDCzbHex4-20">
          <mxGeometry relative="1" as="geometry" />
        </mxCell>
        <mxCell id="qcJPQ-r1ZDYLDCzbHex4-4" value="Processes Page" style="rounded=1;whiteSpace=wrap;html=1;" vertex="1" parent="1">
          <mxGeometry x="350" y="180" width="120" height="60" as="geometry" />
        </mxCell>
        <mxCell id="qcJPQ-r1ZDYLDCzbHex4-5" value="Results Page" style="rounded=1;whiteSpace=wrap;html=1;" vertex="1" parent="1">
          <mxGeometry x="660" y="180" width="120" height="60" as="geometry" />
        </mxCell>
        <mxCell id="qcJPQ-r1ZDYLDCzbHex4-8" style="edgeStyle=orthogonalEdgeStyle;rounded=0;orthogonalLoop=1;jettySize=auto;html=1;" edge="1" parent="1" source="qcJPQ-r1ZDYLDCzbHex4-6" target="qcJPQ-r1ZDYLDCzbHex4-4">
          <mxGeometry relative="1" as="geometry" />
        </mxCell>
        <mxCell id="qcJPQ-r1ZDYLDCzbHex4-9" style="edgeStyle=orthogonalEdgeStyle;rounded=0;orthogonalLoop=1;jettySize=auto;html=1;entryX=0.5;entryY=0;entryDx=0;entryDy=0;" edge="1" parent="1" source="qcJPQ-r1ZDYLDCzbHex4-6" target="qcJPQ-r1ZDYLDCzbHex4-3">
          <mxGeometry relative="1" as="geometry" />
        </mxCell>
        <mxCell id="qcJPQ-r1ZDYLDCzbHex4-10" style="edgeStyle=orthogonalEdgeStyle;rounded=0;orthogonalLoop=1;jettySize=auto;html=1;" edge="1" parent="1" source="qcJPQ-r1ZDYLDCzbHex4-6" target="qcJPQ-r1ZDYLDCzbHex4-5">
          <mxGeometry relative="1" as="geometry" />
        </mxCell>
        <mxCell id="qcJPQ-r1ZDYLDCzbHex4-6" value="" style="verticalLabelPosition=bottom;html=1;verticalAlign=top;align=center;strokeColor=none;fillColor=#00BEF2;shape=mxgraph.azure.laptop;pointerEvents=1;" vertex="1" parent="1">
          <mxGeometry x="510" y="70" width="110" height="70" as="geometry" />
        </mxCell>
        <mxCell id="qcJPQ-r1ZDYLDCzbHex4-7" value="Kivy" style="text;html=1;align=center;verticalAlign=middle;whiteSpace=wrap;rounded=0;fontSize=20;" vertex="1" parent="1">
          <mxGeometry x="535" y="80" width="60" height="30" as="geometry" />
        </mxCell>
        <mxCell id="qcJPQ-r1ZDYLDCzbHex4-12" value="gNB start command" style="text;html=1;align=center;verticalAlign=middle;resizable=0;points=[];autosize=1;strokeColor=none;fillColor=none;" vertex="1" parent="1">
          <mxGeometry x="130" y="260" width="130" height="30" as="geometry" />
        </mxCell>
        <mxCell id="qcJPQ-r1ZDYLDCzbHex4-17" style="edgeStyle=orthogonalEdgeStyle;rounded=0;orthogonalLoop=1;jettySize=auto;html=1;entryX=0;entryY=0.25;entryDx=0;entryDy=0;" edge="1" parent="1" source="qcJPQ-r1ZDYLDCzbHex4-13" target="qcJPQ-r1ZDYLDCzbHex4-4">
          <mxGeometry relative="1" as="geometry">
            <Array as="points">
              <mxPoint x="160" y="195" />
              <mxPoint x="160" y="195" />
            </Array>
          </mxGeometry>
        </mxCell>
        <mxCell id="qcJPQ-r1ZDYLDCzbHex4-75" style="edgeStyle=orthogonalEdgeStyle;rounded=0;orthogonalLoop=1;jettySize=auto;html=1;entryX=1;entryY=0.5;entryDx=0;entryDy=0;" edge="1" parent="1" source="qcJPQ-r1ZDYLDCzbHex4-13" target="qcJPQ-r1ZDYLDCzbHex4-5">
          <mxGeometry relative="1" as="geometry">
            <Array as="points">
              <mxPoint x="75" y="60" />
              <mxPoint x="820" y="60" />
              <mxPoint x="820" y="210" />
            </Array>
          </mxGeometry>
        </mxCell>
        <mxCell id="qcJPQ-r1ZDYLDCzbHex4-13" value="" style="sketch=0;aspect=fixed;pointerEvents=1;shadow=0;dashed=0;html=1;strokeColor=none;labelPosition=center;verticalLabelPosition=bottom;verticalAlign=top;align=center;fillColor=#00188D;shape=mxgraph.mscae.enterprise.router" vertex="1" parent="1">
          <mxGeometry x="50" y="180" width="50" height="39" as="geometry" />
        </mxCell>
        <mxCell id="qcJPQ-r1ZDYLDCzbHex4-15" style="edgeStyle=orthogonalEdgeStyle;rounded=0;orthogonalLoop=1;jettySize=auto;html=1;entryX=0.5;entryY=1.077;entryDx=0;entryDy=0;entryPerimeter=0;exitX=0.25;exitY=1;exitDx=0;exitDy=0;" edge="1" parent="1" source="qcJPQ-r1ZDYLDCzbHex4-4" target="qcJPQ-r1ZDYLDCzbHex4-13">
          <mxGeometry relative="1" as="geometry">
            <Array as="points">
              <mxPoint x="380" y="250" />
              <mxPoint x="75" y="250" />
            </Array>
          </mxGeometry>
        </mxCell>
        <mxCell id="qcJPQ-r1ZDYLDCzbHex4-18" value="gNB process info" style="text;html=1;align=center;verticalAlign=middle;resizable=0;points=[];autosize=1;strokeColor=none;fillColor=none;" vertex="1" parent="1">
          <mxGeometry x="140" y="160" width="110" height="30" as="geometry" />
        </mxCell>
        <mxCell id="qcJPQ-r1ZDYLDCzbHex4-30" style="edgeStyle=orthogonalEdgeStyle;rounded=0;orthogonalLoop=1;jettySize=auto;html=1;entryX=0.5;entryY=0;entryDx=0;entryDy=0;" edge="1" parent="1" source="qcJPQ-r1ZDYLDCzbHex4-20" target="qcJPQ-r1ZDYLDCzbHex4-27">
          <mxGeometry relative="1" as="geometry" />
        </mxCell>
        <mxCell id="qcJPQ-r1ZDYLDCzbHex4-31" style="edgeStyle=orthogonalEdgeStyle;rounded=0;orthogonalLoop=1;jettySize=auto;html=1;entryX=0.5;entryY=0;entryDx=0;entryDy=0;exitX=1;exitY=0.5;exitDx=0;exitDy=0;" edge="1" parent="1" source="qcJPQ-r1ZDYLDCzbHex4-20" target="qcJPQ-r1ZDYLDCzbHex4-28">
          <mxGeometry relative="1" as="geometry" />
        </mxCell>
        <mxCell id="qcJPQ-r1ZDYLDCzbHex4-68" style="edgeStyle=orthogonalEdgeStyle;rounded=0;orthogonalLoop=1;jettySize=auto;html=1;entryX=0;entryY=0.5;entryDx=0;entryDy=0;" edge="1" parent="1" source="qcJPQ-r1ZDYLDCzbHex4-20" target="qcJPQ-r1ZDYLDCzbHex4-67">
          <mxGeometry relative="1" as="geometry">
            <Array as="points">
              <mxPoint x="650" y="450" />
              <mxPoint x="650" y="400" />
            </Array>
          </mxGeometry>
        </mxCell>
        <mxCell id="qcJPQ-r1ZDYLDCzbHex4-20" value="UE Interface" style="rounded=1;whiteSpace=wrap;html=1;" vertex="1" parent="1">
          <mxGeometry x="350" y="420" width="120" height="60" as="geometry" />
        </mxCell>
        <mxCell id="qcJPQ-r1ZDYLDCzbHex4-22" value="Start command, config file,&amp;nbsp;&lt;div&gt;UE type&lt;/div&gt;" style="text;html=1;align=left;verticalAlign=middle;whiteSpace=wrap;rounded=0;" vertex="1" parent="1">
          <mxGeometry x="410" y="310" width="90" height="30" as="geometry" />
        </mxCell>
        <mxCell id="qcJPQ-r1ZDYLDCzbHex4-33" style="edgeStyle=orthogonalEdgeStyle;rounded=0;orthogonalLoop=1;jettySize=auto;html=1;" edge="1" parent="1" source="qcJPQ-r1ZDYLDCzbHex4-27" target="qcJPQ-r1ZDYLDCzbHex4-20">
          <mxGeometry relative="1" as="geometry" />
        </mxCell>
        <mxCell id="qcJPQ-r1ZDYLDCzbHex4-58" style="edgeStyle=orthogonalEdgeStyle;rounded=0;orthogonalLoop=1;jettySize=auto;html=1;entryX=1;entryY=0.5;entryDx=0;entryDy=0;" edge="1" parent="1" source="qcJPQ-r1ZDYLDCzbHex4-27" target="qcJPQ-r1ZDYLDCzbHex4-57">
          <mxGeometry relative="1" as="geometry">
            <Array as="points">
              <mxPoint x="280" y="600" />
              <mxPoint x="780" y="600" />
              <mxPoint x="780" y="453" />
            </Array>
          </mxGeometry>
        </mxCell>
        <mxCell id="qcJPQ-r1ZDYLDCzbHex4-27" value="Tester UE" style="shape=parallelogram;perimeter=parallelogramPerimeter;whiteSpace=wrap;html=1;fixedSize=1;" vertex="1" parent="1">
          <mxGeometry x="220" y="510" width="120" height="60" as="geometry" />
        </mxCell>
        <mxCell id="qcJPQ-r1ZDYLDCzbHex4-64" style="edgeStyle=orthogonalEdgeStyle;rounded=0;orthogonalLoop=1;jettySize=auto;html=1;entryX=0.702;entryY=0.619;entryDx=0;entryDy=0;entryPerimeter=0;" edge="1" parent="1" source="qcJPQ-r1ZDYLDCzbHex4-28" target="qcJPQ-r1ZDYLDCzbHex4-61">
          <mxGeometry relative="1" as="geometry">
            <mxPoint x="100" y="540" as="targetPoint" />
            <Array as="points">
              <mxPoint x="510" y="620" />
              <mxPoint x="150" y="620" />
              <mxPoint x="150" y="541" />
              <mxPoint x="81" y="541" />
            </Array>
          </mxGeometry>
        </mxCell>
        <mxCell id="qcJPQ-r1ZDYLDCzbHex4-28" value="clean UE" style="rounded=0;whiteSpace=wrap;html=1;" vertex="1" parent="1">
          <mxGeometry x="450" y="510" width="120" height="60" as="geometry" />
        </mxCell>
        <mxCell id="qcJPQ-r1ZDYLDCzbHex4-32" value="args (--rrc.sdu_fuzzed_bits 1)" style="text;html=1;align=center;verticalAlign=middle;whiteSpace=wrap;rounded=0;" vertex="1" parent="1">
          <mxGeometry x="120" y="455" width="160" height="35" as="geometry" />
        </mxCell>
        <mxCell id="qcJPQ-r1ZDYLDCzbHex4-35" value="logs" style="text;html=1;align=center;verticalAlign=middle;resizable=0;points=[];autosize=1;strokeColor=none;fillColor=none;" vertex="1" parent="1">
          <mxGeometry x="370" y="500" width="50" height="30" as="geometry" />
        </mxCell>
        <mxCell id="qcJPQ-r1ZDYLDCzbHex4-38" value="" style="edgeStyle=orthogonalEdgeStyle;rounded=0;orthogonalLoop=1;jettySize=auto;html=1;exitX=0;exitY=0.5;exitDx=0;exitDy=0;" edge="1" parent="1" source="qcJPQ-r1ZDYLDCzbHex4-28" target="qcJPQ-r1ZDYLDCzbHex4-37">
          <mxGeometry relative="1" as="geometry">
            <mxPoint x="410" y="480" as="targetPoint" />
            <mxPoint x="450" y="540" as="sourcePoint" />
          </mxGeometry>
        </mxCell>
        <mxCell id="qcJPQ-r1ZDYLDCzbHex4-37" value="log monitor thread" style="shape=process;whiteSpace=wrap;html=1;backgroundOutline=1;" vertex="1" parent="1">
          <mxGeometry x="345" y="462.5" width="130" height="17.5" as="geometry" />
        </mxCell>
        <mxCell id="qcJPQ-r1ZDYLDCzbHex4-41" value="UE Attack config" style="swimlane;fontStyle=0;childLayout=stackLayout;horizontal=1;startSize=50;horizontalStack=0;resizeParent=1;resizeParentMax=0;resizeLast=0;collapsible=1;marginBottom=0;whiteSpace=wrap;html=1;" vertex="1" parent="1">
          <mxGeometry x="517.5" y="260" width="95" height="170" as="geometry">
            <mxRectangle x="517.5" y="260" width="130" height="30" as="alternateBounds" />
          </mxGeometry>
        </mxCell>
        <mxCell id="qcJPQ-r1ZDYLDCzbHex4-42" value="CLI arguments" style="text;strokeColor=none;fillColor=none;align=left;verticalAlign=middle;spacingLeft=4;spacingRight=4;overflow=hidden;points=[[0,0.5],[1,0.5]];portConstraint=eastwest;rotatable=0;whiteSpace=wrap;html=1;" vertex="1" parent="qcJPQ-r1ZDYLDCzbHex4-41">
          <mxGeometry y="50" width="95" height="30" as="geometry" />
        </mxCell>
        <mxCell id="qcJPQ-r1ZDYLDCzbHex4-43" value="Attack Values" style="text;strokeColor=none;fillColor=none;align=left;verticalAlign=middle;spacingLeft=4;spacingRight=4;overflow=hidden;points=[[0,0.5],[1,0.5]];portConstraint=eastwest;rotatable=0;whiteSpace=wrap;html=1;" vertex="1" parent="qcJPQ-r1ZDYLDCzbHex4-41">
          <mxGeometry y="80" width="95" height="30" as="geometry" />
        </mxCell>
        <mxCell id="qcJPQ-r1ZDYLDCzbHex4-44" value="Fuzzed data" style="text;strokeColor=none;fillColor=none;align=left;verticalAlign=middle;spacingLeft=4;spacingRight=4;overflow=hidden;points=[[0,0.5],[1,0.5]];portConstraint=eastwest;rotatable=0;whiteSpace=wrap;html=1;" vertex="1" parent="qcJPQ-r1ZDYLDCzbHex4-41">
          <mxGeometry y="110" width="95" height="30" as="geometry" />
        </mxCell>
        <mxCell id="qcJPQ-r1ZDYLDCzbHex4-49" value="# of attacks" style="text;strokeColor=none;fillColor=none;align=left;verticalAlign=middle;spacingLeft=4;spacingRight=4;overflow=hidden;points=[[0,0.5],[1,0.5]];portConstraint=eastwest;rotatable=0;whiteSpace=wrap;html=1;" vertex="1" parent="qcJPQ-r1ZDYLDCzbHex4-41">
          <mxGeometry y="140" width="95" height="30" as="geometry" />
        </mxCell>
        <mxCell id="qcJPQ-r1ZDYLDCzbHex4-50" style="edgeStyle=orthogonalEdgeStyle;rounded=0;orthogonalLoop=1;jettySize=auto;html=1;exitX=0;exitY=0.5;exitDx=0;exitDy=0;entryX=0.75;entryY=0;entryDx=0;entryDy=0;" edge="1" parent="1" source="qcJPQ-r1ZDYLDCzbHex4-49" target="qcJPQ-r1ZDYLDCzbHex4-20">
          <mxGeometry relative="1" as="geometry">
            <Array as="points">
              <mxPoint x="518" y="400" />
              <mxPoint x="440" y="400" />
            </Array>
          </mxGeometry>
        </mxCell>
        <mxCell id="qcJPQ-r1ZDYLDCzbHex4-59" style="edgeStyle=orthogonalEdgeStyle;rounded=0;orthogonalLoop=1;jettySize=auto;html=1;entryX=1;entryY=0.5;entryDx=0;entryDy=0;" edge="1" parent="1" source="qcJPQ-r1ZDYLDCzbHex4-54" target="qcJPQ-r1ZDYLDCzbHex4-28">
          <mxGeometry relative="1" as="geometry">
            <Array as="points">
              <mxPoint x="640" y="540" />
            </Array>
          </mxGeometry>
        </mxCell>
        <mxCell id="qcJPQ-r1ZDYLDCzbHex4-81" style="edgeStyle=orthogonalEdgeStyle;rounded=0;orthogonalLoop=1;jettySize=auto;html=1;entryX=0.25;entryY=1;entryDx=0;entryDy=0;" edge="1" parent="1" source="qcJPQ-r1ZDYLDCzbHex4-54" target="qcJPQ-r1ZDYLDCzbHex4-5">
          <mxGeometry relative="1" as="geometry">
            <Array as="points">
              <mxPoint x="690" y="290" />
              <mxPoint x="690" y="290" />
            </Array>
          </mxGeometry>
        </mxCell>
        <mxCell id="qcJPQ-r1ZDYLDCzbHex4-54" value="Iperf -c&amp;nbsp;" style="shape=process;whiteSpace=wrap;html=1;backgroundOutline=1;" vertex="1" parent="1">
          <mxGeometry x="620" y="300" width="95" height="20" as="geometry" />
        </mxCell>
        <mxCell id="qcJPQ-r1ZDYLDCzbHex4-72" style="edgeStyle=orthogonalEdgeStyle;rounded=0;orthogonalLoop=1;jettySize=auto;html=1;" edge="1" parent="1" source="qcJPQ-r1ZDYLDCzbHex4-57" target="qcJPQ-r1ZDYLDCzbHex4-67">
          <mxGeometry relative="1" as="geometry" />
        </mxCell>
        <mxCell id="qcJPQ-r1ZDYLDCzbHex4-57" value="NR MAC PCAP" style="shape=image;html=1;verticalAlign=top;verticalLabelPosition=bottom;labelBackgroundColor=#ffffff;imageAspect=0;aspect=fixed;image=https://cdn0.iconfinder.com/data/icons/evericons-24px-vol-1/24/file-text-128.png" vertex="1" parent="1">
          <mxGeometry x="700" y="437.5" width="30" height="30" as="geometry" />
        </mxCell>
        <mxCell id="qcJPQ-r1ZDYLDCzbHex4-61" value="" style="html=1;verticalLabelPosition=bottom;align=center;labelBackgroundColor=#ffffff;verticalAlign=top;strokeWidth=2;strokeColor=#0080F0;shadow=0;dashed=0;shape=mxgraph.ios7.icons.wifi;pointerEvents=1" vertex="1" parent="1">
          <mxGeometry x="60.14999999999998" y="530" width="29.7" height="21" as="geometry" />
        </mxCell>
        <mxCell id="qcJPQ-r1ZDYLDCzbHex4-63" style="edgeStyle=orthogonalEdgeStyle;rounded=0;orthogonalLoop=1;jettySize=auto;html=1;entryX=0.904;entryY=0.476;entryDx=0;entryDy=0;entryPerimeter=0;" edge="1" parent="1" source="qcJPQ-r1ZDYLDCzbHex4-27" target="qcJPQ-r1ZDYLDCzbHex4-61">
          <mxGeometry relative="1" as="geometry" />
        </mxCell>
        <mxCell id="qcJPQ-r1ZDYLDCzbHex4-65" value="UU interface" style="text;html=1;align=center;verticalAlign=middle;resizable=0;points=[];autosize=1;strokeColor=none;fillColor=none;" vertex="1" parent="1">
          <mxGeometry x="30" y="551" width="90" height="30" as="geometry" />
        </mxCell>
        <mxCell id="qcJPQ-r1ZDYLDCzbHex4-73" style="edgeStyle=orthogonalEdgeStyle;rounded=0;orthogonalLoop=1;jettySize=auto;html=1;exitX=0.5;exitY=0;exitDx=0;exitDy=0;entryX=0.5;entryY=1;entryDx=0;entryDy=0;" edge="1" parent="1" source="qcJPQ-r1ZDYLDCzbHex4-67" target="qcJPQ-r1ZDYLDCzbHex4-5">
          <mxGeometry relative="1" as="geometry">
            <Array as="points">
              <mxPoint x="720" y="380" />
            </Array>
          </mxGeometry>
        </mxCell>
        <mxCell id="qcJPQ-r1ZDYLDCzbHex4-67" value="RRC/NAS PCAP decoder" style="rounded=1;whiteSpace=wrap;html=1;" vertex="1" parent="1">
          <mxGeometry x="670" y="380" width="90" height="40" as="geometry" />
        </mxCell>
        <mxCell id="qcJPQ-r1ZDYLDCzbHex4-69" value="" style="points=[[0,0.5,0],[0.24,0,0],[0.5,0.28,0],[0.995,0.475,0],[0.5,0.72,0],[0.24,1,0]];verticalLabelPosition=bottom;sketch=0;html=1;verticalAlign=top;aspect=fixed;align=center;pointerEvents=1;shape=mxgraph.cisco19.key;fillColor=#005073;strokeColor=none;" vertex="1" parent="1">
          <mxGeometry x="580" y="455" width="27.78" height="12.5" as="geometry" />
        </mxCell>
        <mxCell id="qcJPQ-r1ZDYLDCzbHex4-71" value="UE enc. key" style="text;html=1;align=center;verticalAlign=middle;whiteSpace=wrap;rounded=0;" vertex="1" parent="1">
          <mxGeometry x="563.89" y="467.5" width="60" height="30" as="geometry" />
        </mxCell>
        <mxCell id="qcJPQ-r1ZDYLDCzbHex4-74" value="" style="image;aspect=fixed;html=1;points=[];align=center;fontSize=12;image=img/lib/azure2/management_governance/Resource_Graph_Explorer.svg;" vertex="1" parent="1">
          <mxGeometry x="730" y="340" width="20.94" height="20" as="geometry" />
        </mxCell>
        <mxCell id="qcJPQ-r1ZDYLDCzbHex4-76" value="gNB metrics" style="text;html=1;align=center;verticalAlign=middle;whiteSpace=wrap;rounded=0;" vertex="1" parent="1">
          <mxGeometry x="165" y="60" width="60" height="30" as="geometry" />
        </mxCell>
        <mxCell id="qcJPQ-r1ZDYLDCzbHex4-77" value="" style="image;aspect=fixed;html=1;points=[];align=center;fontSize=12;image=img/lib/azure2/management_governance/Resource_Graph_Explorer.svg;" vertex="1" parent="1">
          <mxGeometry x="220" y="65" width="20.94" height="20" as="geometry" />
        </mxCell>
        <mxCell id="qcJPQ-r1ZDYLDCzbHex4-80" value="Visualized packet flow" style="text;html=1;align=center;verticalAlign=middle;whiteSpace=wrap;rounded=0;" vertex="1" parent="1">
          <mxGeometry x="720" y="310" width="70" height="30" as="geometry" />
        </mxCell>
        <mxCell id="qcJPQ-r1ZDYLDCzbHex4-82" value="Channel quality metrics" style="text;html=1;align=center;verticalAlign=middle;whiteSpace=wrap;rounded=0;" vertex="1" parent="1">
          <mxGeometry x="625" y="260" width="70" height="30" as="geometry" />
        </mxCell>
      </root>
    </mxGraphModel>
  </diagram>
</mxfile>
